<svg xmlns="http://www.w3.org/2000/svg" viewBox="0 0 180 48" role="img" aria-labelledby="title desc">
  <title id="title">Solar Energy</title>
  <desc id="desc">Logotipo estilizado da Solar Energy com ícone de painel solar e sol nascente.</desc>
  <defs>
    <linearGradient id="panelGradient" x1="0%" y1="0%" x2="100%" y2="100%">
      <stop offset="0%" stop-color="#ff8a4c" />
      <stop offset="100%" stop-color="#ff6b35" />
    </linearGradient>
    <linearGradient id="sunGradient" x1="0%" y1="0%" x2="0%" y2="100%">
      <stop offset="0%" stop-color="#ffe7c2" />
      <stop offset="100%" stop-color="#ffc062" />
    </linearGradient>
  </defs>
  <rect width="180" height="48" rx="12" fill="#102235" />
  <g transform="translate(16 10)">
    <circle cx="20" cy="14" r="10" fill="url(#sunGradient)" opacity="0.9" />
    <path d="M4 26h32c1.1 0 2-.9 2-2V10c0-1.1-.9-2-2-2H4C2.9 8 2 8.9 2 10v14c0 1.1.9 2 2 2z" fill="url(#panelGradient)" />
    <path d="M6 12h28M6 16h28M6 20h28" stroke="#ffffff" stroke-opacity="0.4" stroke-width="1.5" stroke-linecap="round" />
    <path d="M12 26l-3 8m9-8l-1.5 8m8.5-8l1.5 8m8.5-8l3 8" stroke="#ffffff" stroke-opacity="0.35" stroke-width="1.6" stroke-linecap="round" />
  </g>
  <text x="64" y="30" fill="#ffffff" font-family="'Poppins', 'Segoe UI', sans-serif" font-size="20" font-weight="600" letter-spacing="1">
    SOLAR <tspan fill="#ff8445">ENERGY</tspan>
  </text>
</svg>
